<svg version="1.0" xmlns="http://www.w3.org/2000/svg" viewBox="0 0 700 643" preserveAspectRatio="xMidYMid meet">
<g transform="translate(0,643) scale(0.1,-0.1)" fill="#000000" stroke="none">
<path d="M375 6420 c-3 -5 -15 -10 -27 -10 -35 0 -135 -60 -188 -113 -48 -48
-85 -112 -109 -188 -8 -26 -11 -821 -11 -2895 0 -2526 2 -2864 15 -2902 49
-141 140 -231 280 -280 85 -30 281 -32 3123 -32 2802 0 3133 3 3207 31 110 41
178 93 229 177 72 119 66 -164 66 3007 0 3066 3 2892 -48 2991 -42 82 -198
204 -260 204 -12 0 -24 5 -27 10 -4 7 -1057 10 -3125 10 -2068 0 -3121 -3
-3125 -10z m6230 -221 c25 -7 56 -27 82 -54 60 -63 65 -96 61 -445 l-3 -295
-3245 0 -3245 0 -3 308 c-1 203 2 323 9 350 12 48 92 132 131 140 12 2 1407 5
3098 6 2207 1 3086 -2 3115 -10z m143 -3399 c2 -2634 7 -2443 -61 -2507 -17
-17 -46 -38 -64 -47 -29 -15 -300 -16 -3123 -16 -3022 0 -3092 0 -3128 19 -51
26 -88 68 -107 120 -13 39 -15 307 -15 2426 0 1310 3 2385 7 2388 3 4 1465 6
3247 5 l3241 -3 3 -2385z"></path>
<path d="M760 5948 c-52 -36 -73 -71 -78 -132 -17 -201 268 -260 335 -68 7 20
13 47 13 58 0 52 -50 123 -107 153 -39 20 -126 14 -163 -11z"></path>
<path d="M1320 5948 c-52 -35 -73 -71 -78 -131 -8 -104 67 -187 171 -187 99 0
167 71 167 173 0 62 -25 108 -79 144 -47 32 -135 32 -181 1z"></path>
<path d="M1874 5945 c-46 -27 -84 -93 -84 -144 0 -90 84 -171 178 -171 98 0
167 75 167 180 -1 98 -67 160 -169 160 -36 0 -63 -7 -92 -25z"></path>
<path d="M3299 4200 c-119 -19 -234 -67 -359 -151 -160 -107 -269 -249 -344
-446 -63 -168 -63 -427 -1 -608 67 -195 231 -391 410 -491 28 -15 29 -31 3
-37 -86 -20 -257 -93 -325 -139 -23 -15 -45 -28 -48 -28 -4 0 -48 -29 -99 -64
-96 -68 -281 -249 -357 -351 -74 -99 -160 -256 -210 -382 -5 -13 -13 -33 -18
-45 -5 -13 -12 -34 -16 -48 -3 -14 -11 -41 -16 -60 -24 -85 -40 -173 -49 -270
-15 -156 -15 -155 30 -200 34 -34 47 -40 81 -40 86 0 129 59 129 174 0 42 4
95 9 118 6 24 15 68 21 98 59 280 241 573 470 755 291 231 611 329 972 297
118 -11 257 -37 313 -61 11 -5 56 -23 100 -41 44 -19 92 -42 107 -52 14 -10
29 -18 32 -18 3 0 25 -12 48 -27 179 -116 344 -285 442 -453 72 -125 127 -258
150 -360 31 -142 36 -175 36 -255 0 -135 41 -195 132 -195 36 0 50 6 76 31 18
18 35 42 38 55 13 50 -10 296 -36 389 -6 22 -15 56 -20 75 -21 93 -111 301
-162 377 -15 23 -28 45 -28 49 0 16 -128 174 -204 252 -201 208 -408 331 -715
428 -9 3 20 27 70 60 122 81 217 179 278 287 12 20 29 52 40 70 19 34 50 120
72 202 19 67 19 342 1 410 -91 336 -327 582 -650 676 -77 23 -311 34 -403 19z
m315 -251 c87 -23 182 -70 254 -124 155 -117 262 -332 262 -530 0 -73 -4 -97
-33 -200 -23 -84 -114 -233 -172 -283 -80 -69 -165 -120 -250 -150 -85 -29
-128 -35 -230 -33 -297 6 -527 179 -631 476 -25 71 -25 309 0 380 41 118 107
226 180 293 51 47 149 113 193 129 15 6 37 15 48 19 63 24 112 32 219 33 65 0
137 -4 160 -10z"></path>
</g>
</svg>