<svg version="1.0" xmlns="http://www.w3.org/2000/svg" viewBox="0 0 700 653" preserveAspectRatio="xMidYMid meet">
<g transform="translate(0,653) scale(0.1,-0.1)" fill="#000000" stroke="none">
<path d="M3425 6411 c-44 -27 -70 -60 -85 -108 -17 -56 0 -113 49 -165 l35
-38 -1454 0 c-1576 0 -1524 2 -1646 -54 -75 -34 -151 -97 -201 -166 -52 -72
-69 -107 -88 -188 -14 -60 -16 -270 -13 -2162 l3 -2095 27 -69 c35 -86 83
-151 156 -213 70 -59 99 -75 181 -102 64 -21 74 -21 1187 -21 618 0 1125 -4
1128 -8 5 -9 2 -30 -29 -197 -9 -49 -20 -110 -25 -135 -4 -25 -16 -85 -25
-135 -19 -101 -29 -157 -48 -260 l-12 -70 -125 -3 c-115 -2 -126 -4 -157 -28
-29 -22 -33 -30 -33 -74 0 -42 4 -52 31 -74 l31 -26 1199 0 1199 0 32 29 c27
24 33 36 33 71 0 36 -6 47 -35 71 -33 28 -37 29 -152 29 -133 0 -119 -10 -138
100 -31 172 -41 230 -49 270 -5 25 -16 83 -25 130 -19 107 -33 181 -46 244 -5
26 -7 52 -4 57 3 5 482 9 1124 9 l1118 0 69 23 c88 30 144 66 215 139 68 68
104 135 130 237 17 70 18 163 18 2131 0 1968 -1 2061 -18 2131 -11 41 -32 99
-47 129 -38 75 -146 179 -227 219 -129 64 -59 61 -1661 61 l-1459 0 32 26 c43
37 60 75 60 137 0 44 -5 62 -30 95 -16 23 -43 48 -59 57 -42 21 -129 19 -166
-4z m3172 -550 c57 -27 125 -91 154 -147 l24 -48 0 -2106 0 -2106 -24 -48
c-28 -54 -81 -105 -143 -138 l-43 -23 -3055 0 -3055 0 -45 22 c-45 22 -119 90
-138 129 -44 85 -42 -12 -42 2164 0 2013 0 2056 20 2109 10 29 26 63 34 76 25
38 99 96 146 116 43 17 168 18 3085 18 2967 1 3041 0 3082 -18z m-2470 -4916
c6 -38 16 -95 21 -125 34 -177 44 -230 51 -275 5 -27 17 -90 26 -140 10 -49
18 -110 19 -135 l1 -45 -734 -3 c-404 -1 -738 1 -743 6 -4 4 -1 44 8 87 9 44
20 100 24 125 4 25 16 86 25 135 9 50 20 110 25 135 5 25 16 86 25 135 9 50
19 104 22 120 2 17 6 36 8 43 4 10 130 12 607 10 l603 -3 12 -70z"></path>
<path d="M3365 5556 c-145 -32 -252 -92 -361 -201 -134 -134 -204 -301 -204
-493 0 -120 22 -217 71 -317 65 -132 126 -198 283 -308 17 -12 13 -15 -45 -35
-167 -57 -379 -192 -501 -318 -126 -131 -253 -351 -298 -515 -46 -171 -61
-329 -35 -378 28 -55 103 -64 149 -18 19 19 25 42 35 132 30 267 127 478 303
654 193 194 418 295 688 308 327 15 593 -88 815 -319 178 -183 272 -390 294
-642 11 -129 18 -149 62 -172 41 -21 82 -10 115 29 26 31 26 33 19 132 -34
502 -347 923 -816 1095 -46 17 -85 33 -87 35 -2 2 16 16 40 31 117 73 241 223
282 340 51 144 61 303 26 438 -60 235 -242 427 -478 503 -95 31 -264 40 -357
19z m252 -192 c403 -93 548 -574 261 -866 -98 -99 -193 -144 -328 -155 -242
-18 -452 124 -537 364 -26 72 -23 240 6 317 30 83 72 146 145 213 70 66 132
100 226 124 84 22 142 23 227 3z"></path>
<path d="M849 2581 l-29 -29 0 -442 0 -442 29 -29 29 -29 732 0 732 0 29 29
29 29 0 442 0 442 -29 29 -29 29 -732 0 -732 0 -29 -29z m1366 -471 l0 -315
-605 0 -605 0 -3 305 c-1 168 0 310 3 317 3 11 128 13 607 11 l603 -3 0 -315z"></path>
<path d="M2749 2581 l-29 -29 0 -442 0 -442 29 -29 29 -29 732 0 732 0 29 29
29 29 0 442 0 442 -29 29 -29 29 -732 0 -732 0 -29 -29z m1366 -471 l0 -315
-605 0 -605 0 -3 305 c-1 168 0 310 3 317 3 11 128 13 607 11 l603 -3 0 -315z"></path>
<path d="M4649 2581 l-29 -29 0 -442 0 -442 29 -29 29 -29 732 0 732 0 29 29
29 29 0 442 0 442 -29 29 -29 29 -732 0 -732 0 -29 -29z m1366 -471 l0 -315
-605 0 -605 0 -3 305 c-1 168 0 310 3 317 3 11 128 13 607 11 l603 -3 0 -315z"></path>
</g>
</svg>